<svg width="575" height="335" viewBox="0 0 575 335" fill="none" xmlns="http://www.w3.org/2000/svg">
<path d="M475.427 294.071C478.435 292.122 479.768 291.776 480.802 290.87C536.574 221.826 562.183 152.181 549.332 83.4447C546.143 66.0681 537.13 51.0507 523.531 38.8172C494.743 12.3137 444.501 10.0981 396.493 32.9576C371.427 44.7686 348.796 59.2493 332.569 80.0553C335.327 89.0279 338.479 97.792 340.148 106.621C342.781 121.054 339.087 135.955 326.196 150.681C316.899 161.71 305.06 167.968 296.353 166.816C284.926 165.304 280.739 157.446 282.431 148.28C284.75 135.545 288.946 122.536 293.836 109.881C297.064 101.701 302.714 93.319 307.575 85.3547C283.97 57.1899 234.567 66.0404 191.081 105.931C191.895 111.256 192.858 116.861 193.277 122.394C194.206 143.123 186.333 163.47 165.795 181.879C157.915 188.922 148.497 194.979 137.464 193.258C129.153 191.897 124.966 184.04 127.094 172.844C130.775 155.073 141.531 138.238 154.069 121.899C158.643 116.245 163.217 110.59 167.94 105.216C133.881 60.2779 53.3828 58.2308 3.0752 110C1.52607 106.143 -0.513305 103.265 0.16812 100.747C1.09466 97.7393 4.83758 94.3221 8.09027 91.8834C39.242 69.662 71.9135 55.9885 106.835 59.8282C133.05 62.5155 154.446 71.3467 172.698 84.7177C175.227 86.6175 177.757 88.5174 180.681 90.2086C180.831 90.4892 181.769 90.3527 183.796 90.3602C187.199 88.2021 191.54 85.9075 195.582 83.0515C245.323 49.2053 278.33 44.7056 321.488 66.8508C325.625 63.225 330.552 59.182 334.935 55.067C361.434 31.7081 391.522 15.0843 426.191 6.10949C482.59 -8.59687 531.248 4.88611 555.433 41.7355C568.62 61.7396 574.255 84.6568 574.067 109.933C573.29 171.127 550.555 230.98 499.632 289.189C497.223 292.261 494.269 295.261 491.86 298.333C491.614 298.822 491.519 299.592 491.232 301.902C505.846 297.054 518.026 289.537 530.355 282.3C542.439 275.553 554.619 268.036 567.738 260.382C570.441 268.304 566.411 274.031 560.6 279.261C553.604 285.117 546.908 291.534 539.164 295.986C518.153 307.812 496.598 319.566 474.444 330.198C457.026 338.326 448.852 334.374 451.116 320.589C456.232 291.27 461.742 261.742 467.253 232.214C468.221 227.386 470.277 222.702 472.525 216.479C483.313 218.689 482.548 224.848 482.028 230.518C479.052 251.513 477.261 271.882 475.427 294.071ZM144.818 178.581C170.702 161.662 181.093 140.344 173.006 122.319C159.339 140.334 146.012 157.09 144.818 178.581ZM301.381 151.57C322.571 135.334 327.64 118.268 316.151 102.401C305.94 119.308 297.402 134.611 301.381 151.57Z" fill="#0D1927"/>
</svg>
