<svg width="40" height="25" viewBox="0 0 40 25" fill="none" xmlns="http://www.w3.org/2000/svg">
<g id="&#240;&#159;&#166;&#134; icon &#34;cart&#34;">
<path id="Vector" d="M2.2994 0.0084518C1.64863 0.0968274 1.06587 0.401003 0.679328 0.854062C0.292787 1.30712 0.134127 1.87195 0.238251 2.4243C0.342375 2.97665 0.700754 3.47127 1.23455 3.79934C1.76834 4.12742 2.43383 4.26208 3.0846 4.17371H10.4459L10.8875 5.21502L12.8996 10.4216L14.9117 15.6282C15.108 16.1697 15.9423 16.6695 16.5802 16.6695H33.7565C34.4435 16.6695 35.2287 16.1697 35.425 15.6282L39.4001 5.21502C39.5964 4.67354 39.302 4.17371 38.6149 4.17371H16.8256L14.9608 1.17472C14.7621 0.830504 14.4554 0.539483 14.0745 0.333707C13.6935 0.12793 13.253 0.0153808 12.8015 0.0084518L2.98645 0.0084518C2.83953 -0.00281727 2.6917 -0.00281727 2.54478 0.0084518C2.44672 0.00344898 2.34839 0.00344898 2.25033 0.0084518L2.2994 0.0084518ZM17.8071 20.8347C16.433 20.8347 15.3534 21.7511 15.3534 22.9174C15.3534 24.0836 16.433 25 17.8071 25C19.1812 25 20.2609 24.0836 20.2609 22.9174C20.2609 21.7511 19.1812 20.8347 17.8071 20.8347ZM32.5296 20.8347C31.1555 20.8347 30.0759 21.7511 30.0759 22.9174C30.0759 24.0836 31.1555 25 32.5296 25C33.9037 25 34.9834 24.0836 34.9834 22.9174C34.9834 21.7511 33.9037 20.8347 32.5296 20.8347Z" fill="white"/>
</g>
</svg>
