<svg width="650" height="501" viewBox="0 0 650 501" fill="none" xmlns="http://www.w3.org/2000/svg">
<g filter="url(#filter0_d_86_2816)">
<path d="M4 11C4 4.92488 8.92487 0 15 0H635C641.075 0 646 4.92487 646 11V482C646 488.075 641.075 493 635 493H15C8.92486 493 4 488.075 4 482V11Z" fill="white"/>
<path d="M4.5 11C4.5 5.20102 9.20101 0.5 15 0.5H635C640.799 0.5 645.5 5.20101 645.5 11V482C645.5 487.799 640.799 492.5 635 492.5H15C9.20101 492.5 4.5 487.799 4.5 482V11Z" stroke="black"/>
</g>
<defs>
<filter id="filter0_d_86_2816" x="0" y="0" width="650" height="501" filterUnits="userSpaceOnUse" color-interpolation-filters="sRGB">
<feFlood flood-opacity="0" result="BackgroundImageFix"/>
<feColorMatrix in="SourceAlpha" type="matrix" values="0 0 0 0 0 0 0 0 0 0 0 0 0 0 0 0 0 0 127 0" result="hardAlpha"/>
<feOffset dy="4"/>
<feGaussianBlur stdDeviation="2"/>
<feComposite in2="hardAlpha" operator="out"/>
<feColorMatrix type="matrix" values="0 0 0 0 0 0 0 0 0 0 0 0 0 0 0 0 0 0 0.25 0"/>
<feBlend mode="normal" in2="BackgroundImageFix" result="effect1_dropShadow_86_2816"/>
<feBlend mode="normal" in="SourceGraphic" in2="effect1_dropShadow_86_2816" result="shape"/>
</filter>
</defs>
</svg>
